<mxfile host="app.diagrams.net" modified="2020-11-09T13:46:07.185Z" agent="5.0 (Macintosh; Intel Mac OS X 10_15_7) AppleWebKit/537.36 (KHTML, like Gecko) Chrome/85.0.4183.83 Safari/537.36" etag="93M8RpuLxrKWeABM96IT" version="13.9.2" type="github">
  <diagram id="kgpKYQtTHZ0yAKxKKP6v" name="Page-1">
    <mxGraphModel dx="1638" dy="393" grid="1" gridSize="10" guides="1" tooltips="1" connect="1" arrows="1" fold="1" page="1" pageScale="1" pageWidth="850" pageHeight="1100" math="0" shadow="0">
      <root>
        <mxCell id="0" />
        <mxCell id="1" parent="0" />
        <mxCell id="3nuBFxr9cyL0pnOWT2aG-1" value=":LogicManager" style="shape=umlLifeline;perimeter=lifelinePerimeter;container=1;collapsible=0;recursiveResize=0;rounded=0;shadow=0;strokeWidth=1;" parent="1" vertex="1">
          <mxGeometry x="120" y="80" width="100" height="680" as="geometry" />
        </mxCell>
        <mxCell id="3nuBFxr9cyL0pnOWT2aG-2" value="" style="points=[];perimeter=orthogonalPerimeter;rounded=0;shadow=0;strokeWidth=1;" parent="3nuBFxr9cyL0pnOWT2aG-1" vertex="1">
          <mxGeometry x="45" y="70" width="10" height="480" as="geometry" />
        </mxCell>
        <mxCell id="3nuBFxr9cyL0pnOWT2aG-5" value=":FlashcardParser" style="shape=umlLifeline;perimeter=lifelinePerimeter;container=1;collapsible=0;recursiveResize=0;rounded=0;shadow=0;strokeWidth=1;" parent="1" vertex="1">
          <mxGeometry x="300" y="80" width="100" height="680" as="geometry" />
        </mxCell>
        <mxCell id="3nuBFxr9cyL0pnOWT2aG-6" value="" style="points=[];perimeter=orthogonalPerimeter;rounded=0;shadow=0;strokeWidth=1;" parent="3nuBFxr9cyL0pnOWT2aG-5" vertex="1">
          <mxGeometry x="45" y="80" width="10" height="160" as="geometry" />
        </mxCell>
        <mxCell id="3nuBFxr9cyL0pnOWT2aG-7" value="command" style="verticalAlign=bottom;endArrow=open;dashed=1;endSize=8;exitX=0.1;exitY=1;shadow=0;strokeWidth=1;exitDx=0;exitDy=0;exitPerimeter=0;" parent="1" source="3nuBFxr9cyL0pnOWT2aG-6" target="3nuBFxr9cyL0pnOWT2aG-2" edge="1">
          <mxGeometry relative="1" as="geometry">
            <mxPoint x="275" y="236" as="targetPoint" />
            <Array as="points">
              <mxPoint x="310" y="320" />
            </Array>
          </mxGeometry>
        </mxCell>
        <mxCell id="3nuBFxr9cyL0pnOWT2aG-8" value="parseCommand(&quot;enter quiz&quot;)" style="verticalAlign=bottom;endArrow=block;entryX=0;entryY=0;shadow=0;strokeWidth=1;" parent="1" source="3nuBFxr9cyL0pnOWT2aG-2" target="3nuBFxr9cyL0pnOWT2aG-6" edge="1">
          <mxGeometry relative="1" as="geometry">
            <mxPoint x="275" y="160" as="sourcePoint" />
          </mxGeometry>
        </mxCell>
        <mxCell id="mZa6x4ZlZhBZcdkiNwuG-3" value=":EnterQuizCommandParser" style="shape=umlLifeline;perimeter=lifelinePerimeter;container=1;collapsible=0;recursiveResize=0;rounded=0;shadow=0;strokeWidth=1;" vertex="1" parent="1">
          <mxGeometry x="480" y="140" width="160" height="620" as="geometry" />
        </mxCell>
        <mxCell id="mZa6x4ZlZhBZcdkiNwuG-4" value="" style="points=[];perimeter=orthogonalPerimeter;rounded=0;shadow=0;strokeWidth=1;" vertex="1" parent="mZa6x4ZlZhBZcdkiNwuG-3">
          <mxGeometry x="75" y="40" width="10" height="20" as="geometry" />
        </mxCell>
        <mxCell id="mZa6x4ZlZhBZcdkiNwuG-9" value="" style="points=[];perimeter=orthogonalPerimeter;rounded=0;shadow=0;strokeWidth=1;" vertex="1" parent="mZa6x4ZlZhBZcdkiNwuG-3">
          <mxGeometry x="75" y="85" width="10" height="75" as="geometry" />
        </mxCell>
        <mxCell id="mZa6x4ZlZhBZcdkiNwuG-5" value="" style="verticalAlign=bottom;endArrow=block;shadow=0;strokeWidth=1;exitX=0.99;exitY=0.066;exitDx=0;exitDy=0;exitPerimeter=0;" edge="1" parent="1" source="3nuBFxr9cyL0pnOWT2aG-6">
          <mxGeometry relative="1" as="geometry">
            <mxPoint x="360" y="170.0000000000001" as="sourcePoint" />
            <mxPoint x="480" y="170" as="targetPoint" />
          </mxGeometry>
        </mxCell>
        <mxCell id="mZa6x4ZlZhBZcdkiNwuG-6" value="" style="verticalAlign=bottom;endArrow=open;dashed=1;endSize=8;shadow=0;strokeWidth=1;" edge="1" parent="1">
          <mxGeometry relative="1" as="geometry">
            <mxPoint x="354" y="200" as="targetPoint" />
            <mxPoint x="554" y="200" as="sourcePoint" />
          </mxGeometry>
        </mxCell>
        <mxCell id="mZa6x4ZlZhBZcdkiNwuG-7" value="&lt;span style=&quot;color: rgb(0 , 0 , 0) ; font-family: &amp;#34;helvetica&amp;#34; ; font-size: 11px ; font-style: normal ; font-weight: 400 ; letter-spacing: normal ; text-align: center ; text-indent: 0px ; text-transform: none ; word-spacing: 0px ; background-color: rgb(255 , 255 , 255) ; display: inline ; float: none&quot;&gt;parse(&quot;quiz&quot;)&lt;/span&gt;" style="text;whiteSpace=wrap;html=1;" vertex="1" parent="1">
          <mxGeometry x="380" y="200" width="130" height="30" as="geometry" />
        </mxCell>
        <mxCell id="mZa6x4ZlZhBZcdkiNwuG-12" value="command" style="verticalAlign=bottom;endArrow=open;dashed=1;endSize=8;shadow=0;strokeWidth=1;" edge="1" parent="1">
          <mxGeometry relative="1" as="geometry">
            <mxPoint x="360" y="300" as="targetPoint" />
            <mxPoint x="556" y="300" as="sourcePoint" />
            <Array as="points">
              <mxPoint x="494.5" y="300" />
            </Array>
          </mxGeometry>
        </mxCell>
        <mxCell id="mZa6x4ZlZhBZcdkiNwuG-17" value=":EnterQuizCommand" style="shape=umlLifeline;perimeter=lifelinePerimeter;container=1;collapsible=0;recursiveResize=0;rounded=0;shadow=0;strokeWidth=1;size=40;" vertex="1" parent="1">
          <mxGeometry x="640" y="200" width="160" height="560" as="geometry" />
        </mxCell>
        <mxCell id="mZa6x4ZlZhBZcdkiNwuG-18" value="" style="points=[];perimeter=orthogonalPerimeter;rounded=0;shadow=0;strokeWidth=1;" vertex="1" parent="mZa6x4ZlZhBZcdkiNwuG-17">
          <mxGeometry x="75" y="40" width="10" height="50" as="geometry" />
        </mxCell>
        <mxCell id="mZa6x4ZlZhBZcdkiNwuG-30" value="" style="points=[];perimeter=orthogonalPerimeter;rounded=0;shadow=0;strokeWidth=1;" vertex="1" parent="mZa6x4ZlZhBZcdkiNwuG-17">
          <mxGeometry x="75" y="180" width="10" height="230" as="geometry" />
        </mxCell>
        <mxCell id="mZa6x4ZlZhBZcdkiNwuG-20" value="command" style="verticalAlign=bottom;endArrow=open;dashed=1;endSize=8;shadow=0;strokeWidth=1;entryX=0.955;entryY=0.856;entryDx=0;entryDy=0;entryPerimeter=0;" edge="1" parent="1" target="mZa6x4ZlZhBZcdkiNwuG-9">
          <mxGeometry relative="1" as="geometry">
            <mxPoint x="569.9999999999999" y="290" as="targetPoint" />
            <mxPoint x="720" y="290.34" as="sourcePoint" />
            <Array as="points">
              <mxPoint x="704.5" y="290" />
            </Array>
          </mxGeometry>
        </mxCell>
        <mxCell id="mZa6x4ZlZhBZcdkiNwuG-29" value="" style="endArrow=classic;html=1;" edge="1" parent="1" target="mZa6x4ZlZhBZcdkiNwuG-17">
          <mxGeometry width="50" height="50" relative="1" as="geometry">
            <mxPoint x="174" y="380" as="sourcePoint" />
            <mxPoint x="360" y="420" as="targetPoint" />
            <Array as="points">
              <mxPoint x="230" y="380" />
              <mxPoint x="350" y="380" />
              <mxPoint x="470" y="380" />
            </Array>
          </mxGeometry>
        </mxCell>
        <mxCell id="mZa6x4ZlZhBZcdkiNwuG-32" value=":Model" style="shape=umlLifeline;perimeter=lifelinePerimeter;container=1;collapsible=0;recursiveResize=0;rounded=0;shadow=0;strokeWidth=1;size=40;" vertex="1" parent="1">
          <mxGeometry x="830" y="200" width="160" height="560" as="geometry" />
        </mxCell>
        <mxCell id="mZa6x4ZlZhBZcdkiNwuG-34" value="" style="points=[];perimeter=orthogonalPerimeter;rounded=0;shadow=0;strokeWidth=1;" vertex="1" parent="mZa6x4ZlZhBZcdkiNwuG-32">
          <mxGeometry x="75" y="200" width="10" height="30" as="geometry" />
        </mxCell>
        <mxCell id="mZa6x4ZlZhBZcdkiNwuG-35" value="" style="endArrow=classic;html=1;" edge="1" parent="1" source="mZa6x4ZlZhBZcdkiNwuG-9">
          <mxGeometry width="50" height="50" relative="1" as="geometry">
            <mxPoint x="570" y="230" as="sourcePoint" />
            <mxPoint x="640" y="230" as="targetPoint" />
            <Array as="points">
              <mxPoint x="600" y="230" />
            </Array>
          </mxGeometry>
        </mxCell>
        <mxCell id="mZa6x4ZlZhBZcdkiNwuG-37" value="" style="endArrow=classic;html=1;exitX=0.9;exitY=0.083;exitDx=0;exitDy=0;exitPerimeter=0;" edge="1" parent="1" source="mZa6x4ZlZhBZcdkiNwuG-30" target="mZa6x4ZlZhBZcdkiNwuG-32">
          <mxGeometry width="50" height="50" relative="1" as="geometry">
            <mxPoint x="730" y="400" as="sourcePoint" />
            <mxPoint x="904" y="410" as="targetPoint" />
            <Array as="points">
              <mxPoint x="830" y="400" />
              <mxPoint x="810" y="400" />
            </Array>
          </mxGeometry>
        </mxCell>
        <mxCell id="mZa6x4ZlZhBZcdkiNwuG-42" value="" style="html=1;verticalAlign=bottom;endArrow=open;dashed=1;endSize=8;exitX=0.012;exitY=0.991;exitDx=0;exitDy=0;exitPerimeter=0;" edge="1" parent="1" source="mZa6x4ZlZhBZcdkiNwuG-34" target="mZa6x4ZlZhBZcdkiNwuG-30">
          <mxGeometry x="-0.3609" y="27" relative="1" as="geometry">
            <mxPoint x="905" y="423" as="sourcePoint" />
            <mxPoint x="730" y="430" as="targetPoint" />
            <Array as="points">
              <mxPoint x="840" y="430" />
            </Array>
            <mxPoint as="offset" />
          </mxGeometry>
        </mxCell>
        <mxCell id="mZa6x4ZlZhBZcdkiNwuG-43" value=":CommandResult" style="shape=umlLifeline;perimeter=lifelinePerimeter;container=1;collapsible=0;recursiveResize=0;rounded=0;shadow=0;strokeWidth=1;size=40;" vertex="1" parent="1">
          <mxGeometry x="760" y="500" width="130" height="260" as="geometry" />
        </mxCell>
        <mxCell id="mZa6x4ZlZhBZcdkiNwuG-45" value="" style="points=[];perimeter=orthogonalPerimeter;rounded=0;shadow=0;strokeWidth=1;" vertex="1" parent="mZa6x4ZlZhBZcdkiNwuG-43">
          <mxGeometry x="60" y="40" width="10" height="50" as="geometry" />
        </mxCell>
        <mxCell id="mZa6x4ZlZhBZcdkiNwuG-48" value="" style="endArrow=classic;html=1;entryX=-0.008;entryY=0.081;entryDx=0;entryDy=0;entryPerimeter=0;" edge="1" parent="1" source="mZa6x4ZlZhBZcdkiNwuG-30" target="mZa6x4ZlZhBZcdkiNwuG-43">
          <mxGeometry width="50" height="50" relative="1" as="geometry">
            <mxPoint x="730" y="519" as="sourcePoint" />
            <mxPoint x="758" y="520" as="targetPoint" />
            <Array as="points">
              <mxPoint x="740" y="520" />
            </Array>
          </mxGeometry>
        </mxCell>
        <mxCell id="mZa6x4ZlZhBZcdkiNwuG-50" value="" style="html=1;verticalAlign=bottom;endArrow=open;dashed=1;endSize=8;" edge="1" parent="1">
          <mxGeometry relative="1" as="geometry">
            <mxPoint x="818" y="588" as="sourcePoint" />
            <mxPoint x="724" y="588" as="targetPoint" />
          </mxGeometry>
        </mxCell>
        <mxCell id="mZa6x4ZlZhBZcdkiNwuG-51" value="CommandResult" style="endArrow=open;endSize=12;dashed=1;html=1;entryX=0.867;entryY=0.957;entryDx=0;entryDy=0;entryPerimeter=0;" edge="1" parent="1" source="mZa6x4ZlZhBZcdkiNwuG-17" target="3nuBFxr9cyL0pnOWT2aG-2">
          <mxGeometry x="0.6106" y="-20" width="160" relative="1" as="geometry">
            <mxPoint x="630" y="590" as="sourcePoint" />
            <mxPoint x="180" y="610" as="targetPoint" />
            <Array as="points">
              <mxPoint x="670" y="610" />
              <mxPoint x="420" y="610" />
            </Array>
            <mxPoint as="offset" />
          </mxGeometry>
        </mxCell>
        <mxCell id="mZa6x4ZlZhBZcdkiNwuG-52" value="&lt;span style=&quot;color: rgb(0 , 0 , 0) ; font-family: &amp;#34;helvetica&amp;#34; ; font-size: 11px ; font-style: normal ; font-weight: 400 ; letter-spacing: normal ; text-align: center ; text-indent: 0px ; text-transform: none ; word-spacing: 0px ; background-color: rgb(255 , 255 , 255) ; display: inline ; float: none&quot;&gt;execute(model)&lt;/span&gt;" style="text;whiteSpace=wrap;html=1;" vertex="1" parent="1">
          <mxGeometry x="190" y="390" width="110" height="30" as="geometry" />
        </mxCell>
        <mxCell id="mZa6x4ZlZhBZcdkiNwuG-53" value="" style="endArrow=classic;html=1;exitX=1.02;exitY=0.436;exitDx=0;exitDy=0;exitPerimeter=0;entryX=0.02;entryY=0.064;entryDx=0;entryDy=0;entryPerimeter=0;" edge="1" parent="1" source="3nuBFxr9cyL0pnOWT2aG-6" target="mZa6x4ZlZhBZcdkiNwuG-9">
          <mxGeometry width="50" height="50" relative="1" as="geometry">
            <mxPoint x="360" y="230" as="sourcePoint" />
            <mxPoint x="550" y="230" as="targetPoint" />
            <Array as="points">
              <mxPoint x="440" y="230" />
            </Array>
          </mxGeometry>
        </mxCell>
        <mxCell id="mZa6x4ZlZhBZcdkiNwuG-54" value="&lt;span style=&quot;color: rgb(0 , 0 , 0) ; font-family: &amp;#34;helvetica&amp;#34; ; font-size: 11px ; font-style: normal ; font-weight: 400 ; letter-spacing: normal ; text-align: center ; text-indent: 0px ; text-transform: none ; word-spacing: 0px ; background-color: rgb(255 , 255 , 255) ; display: inline ; float: none&quot;&gt;EnterQuizCommand()&lt;/span&gt;" style="text;whiteSpace=wrap;html=1;" vertex="1" parent="1">
          <mxGeometry x="570" y="240" width="130" height="30" as="geometry" />
        </mxCell>
        <mxCell id="mZa6x4ZlZhBZcdkiNwuG-56" value="" style="html=1;verticalAlign=bottom;endArrow=open;dashed=1;endSize=8;entryX=1.022;entryY=0.856;entryDx=0;entryDy=0;entryPerimeter=0;" edge="1" parent="1" source="3nuBFxr9cyL0pnOWT2aG-1" target="mZa6x4ZlZhBZcdkiNwuG-58">
          <mxGeometry relative="1" as="geometry">
            <mxPoint x="140" y="640" as="sourcePoint" />
            <mxPoint x="30" y="629" as="targetPoint" />
            <Array as="points">
              <mxPoint x="90" y="630" />
            </Array>
          </mxGeometry>
        </mxCell>
        <mxCell id="mZa6x4ZlZhBZcdkiNwuG-57" value=":MainWindow" style="shape=umlLifeline;perimeter=lifelinePerimeter;container=1;collapsible=0;recursiveResize=0;rounded=0;shadow=0;strokeWidth=1;" vertex="1" parent="1">
          <mxGeometry x="-40" y="40" width="100" height="720" as="geometry" />
        </mxCell>
        <mxCell id="mZa6x4ZlZhBZcdkiNwuG-58" value="" style="points=[];perimeter=orthogonalPerimeter;rounded=0;shadow=0;strokeWidth=1;" vertex="1" parent="mZa6x4ZlZhBZcdkiNwuG-57">
          <mxGeometry x="45" y="50" width="15" height="630" as="geometry" />
        </mxCell>
        <mxCell id="mZa6x4ZlZhBZcdkiNwuG-68" value="" style="points=[];perimeter=orthogonalPerimeter;rounded=0;shadow=0;strokeWidth=1;" vertex="1" parent="mZa6x4ZlZhBZcdkiNwuG-57">
          <mxGeometry x="50" y="620" width="20" height="40" as="geometry" />
        </mxCell>
        <mxCell id="mZa6x4ZlZhBZcdkiNwuG-60" value="" style="verticalAlign=bottom;endArrow=block;shadow=0;strokeWidth=1;entryX=0.117;entryY=0.021;entryDx=0;entryDy=0;entryPerimeter=0;" edge="1" parent="1" target="3nuBFxr9cyL0pnOWT2aG-2">
          <mxGeometry relative="1" as="geometry">
            <mxPoint x="20" y="160" as="sourcePoint" />
            <mxPoint x="160" y="156" as="targetPoint" />
            <Array as="points">
              <mxPoint x="130" y="160" />
            </Array>
          </mxGeometry>
        </mxCell>
        <mxCell id="mZa6x4ZlZhBZcdkiNwuG-61" value="&lt;span style=&quot;color: rgb(0 , 0 , 0) ; font-family: &amp;#34;helvetica&amp;#34; ; font-style: normal ; font-weight: 400 ; letter-spacing: normal ; text-align: center ; text-indent: 0px ; text-transform: none ; word-spacing: 0px ; background-color: rgb(255 , 255 , 255) ; display: inline ; float: none&quot;&gt;&lt;font style=&quot;font-size: 11px&quot;&gt;parseCommand(&quot;enter quiz&quot;)&lt;/font&gt;&lt;/span&gt;" style="text;whiteSpace=wrap;html=1;" vertex="1" parent="1">
          <mxGeometry x="20" y="170" width="170" height="40" as="geometry" />
        </mxCell>
        <mxCell id="mZa6x4ZlZhBZcdkiNwuG-67" value="&lt;meta charset=&quot;utf-8&quot;&gt;&lt;span style=&quot;color: rgb(0, 0, 0); font-family: helvetica; font-size: 11px; font-style: normal; font-weight: 400; letter-spacing: normal; text-align: center; text-indent: 0px; text-transform: none; word-spacing: 0px; background-color: rgb(255, 255, 255); display: inline; float: none;&quot;&gt;CommandResult&lt;/span&gt;" style="text;whiteSpace=wrap;html=1;" vertex="1" parent="1">
          <mxGeometry x="50" y="600" width="110" height="30" as="geometry" />
        </mxCell>
        <mxCell id="mZa6x4ZlZhBZcdkiNwuG-71" value="" style="verticalAlign=bottom;endArrow=block;shadow=0;strokeWidth=1;" edge="1" parent="1">
          <mxGeometry relative="1" as="geometry">
            <mxPoint x="20" y="650" as="sourcePoint" />
            <mxPoint x="30" y="670" as="targetPoint" />
            <Array as="points">
              <mxPoint x="60" y="650" />
              <mxPoint x="70" y="660" />
              <mxPoint x="60" y="670" />
            </Array>
          </mxGeometry>
        </mxCell>
        <mxCell id="mZa6x4ZlZhBZcdkiNwuG-72" value="&lt;span style=&quot;color: rgb(0 , 0 , 0) ; font-family: &amp;#34;helvetica&amp;#34; ; font-size: 11px ; font-style: normal ; font-weight: 400 ; letter-spacing: normal ; text-align: center ; text-indent: 0px ; text-transform: none ; word-spacing: 0px ; background-color: rgb(255 , 255 , 255) ; display: inline ; float: none&quot;&gt;handleQuiz()&lt;/span&gt;" style="text;whiteSpace=wrap;html=1;" vertex="1" parent="1">
          <mxGeometry x="40" y="680" width="110" height="30" as="geometry" />
        </mxCell>
      </root>
    </mxGraphModel>
  </diagram>
</mxfile>
